<svg width="32" height="32" viewBox="0 0 32 32" fill="none" xmlns="http://www.w3.org/2000/svg">
  <path d="M14.5 24C14.5 27.3137 11.8137 30 8.5 30C5.18629 30 2.5 27.3137 2.5 24C2.5 20.6863 5.18629 18 8.5 18C11.8137 18 14.5 20.6863 14.5 24Z" fill="#1E3A8A"/>
  <path d="M29.5 16C29.5 19.3137 26.8137 22 23.5 22C20.1863 22 17.5 19.3137 17.5 16C17.5 12.6863 20.1863 10 23.5 10C26.8137 10 29.5 12.6863 29.5 16Z" fill="#4338CA"/>
  <circle cx="5" cy="14" r="2.5" fill="#1E40AF"/>
  <circle cx="9" cy="10" r="3" fill="#1E40AF"/>
  <circle cx="14" cy="9" r="2.5" fill="#1E40AF"/>
  <circle cx="20" cy="6" r="2.5" fill="#4F46E5"/>
  <circle cx="25" cy="2" r="3" fill="#4F46E5"/>
  <circle cx="30" cy="5" r="2.5" fill="#4F46E5"/>
</svg>
